<svg xmlns="http://www.w3.org/2000/svg" viewBox="0 0 64 64">
  <defs>
    <linearGradient id="goodwatchGradient" x1="0%" y1="0%" x2="100%" y2="100%">
      <stop offset="0%" stop-color="#7dd3fc" />
      <stop offset="100%" stop-color="#a855f7" />
    </linearGradient>
  </defs>
  <rect width="64" height="64" rx="16" fill="url(#goodwatchGradient)" />
  <path
    d="M20 32c0-7.732 6.268-14 14-14s14 6.268 14 14c0 7.732-6.268 14-14 14-3.934 0-7.49-1.634-10.053-4.27l4.326-4.325A8.5 8.5 0 1 0 32 23.5c1.793 0 3.446.574 4.798 1.545l-3.122 3.122H44V20l-2.91 2.91C38.496 20.881 35.364 20 32 20c-6.627 0-12 5.373-12 12s5.373 12 12 12c3.183 0 6.075-1.258 8.2-3.3l4.243 4.243C42.616 47.272 37.58 49 32 49c-9.941 0-18-8.059-18-18s8.059-18 18-18 18 8.059 18 18v1h-1c-.552 0-1-.448-1-1 0-7.18-5.82-13-13-13s-13 5.82-13 13 5.82 13 13 13c3.122 0 5.98-1.08 8.24-2.88l2.88 2.88C41.53 46.31 37.01 48 32 48c-8.837 0-16-7.163-16-16Z"
    fill="#0f172a"
    fill-rule="evenodd"
  />
</svg>
